<svg width="114" height="123" viewBox="0 0 114 123" fill="none" xmlns="http://www.w3.org/2000/svg">
<g filter="url(#filter0_d_1_5)">
<path fill-rule="evenodd" clip-rule="evenodd" d="M94.378 112.441C97.4061 109.433 94.378 42.2659 94.378 42.2659C94.378 42.2659 103.967 44.7722 106.995 42.2659C110.023 39.7597 110.528 30.7373 106.995 33.2435C103.462 35.7497 94.378 33.2435 94.378 33.2435C95.5235 25.3888 94.8377 20.9973 90.3405 13.1936C90.3405 13.1936 86.8077 7.17864 79.2375 3.66989C72.5522 0.57135 71.0771 0.734476 65.1799 1.38662C64.3992 1.47295 63.541 1.56786 62.5829 1.6649C56.4031 3.8995 53.0893 5.40176 48.4518 10.1861C44.3745 15.4915 43.8804 18.3424 45.9283 23.2185L50.4705 33.2435C50.4705 33.2435 49.4611 34.246 43.4049 33.2435C37.3487 32.241 39.3674 41.25 43.4049 42.2659C45.1562 42.7066 47.0918 42.3386 49.0542 41.9656C51.6159 41.4786 54.2235 40.9829 56.5267 42.2659C60.5943 44.5319 57.5943 71.194 56.5267 74.847C55.8136 77.2872 51.324 79.9332 44.8112 83.7717C41.5742 85.6795 37.8373 87.8819 33.8159 90.5C24.785 96.3795 19.6848 85.8745 19.6848 85.8745C19.6848 85.8745 17.9752 80.6405 19.6848 76.852C21.8905 72.7148 24.0974 71.3635 31.7972 70.837C31.7972 70.837 41.3862 73.8445 43.4049 70.837C45.4237 67.8295 43.3133 64.6416 41.3862 64.3208C40.7614 64.2168 39.6721 64.4849 38.1579 64.8575C35.0019 65.6341 30.0002 66.865 23.5123 66.1274C20.0615 65.5131 15.7949 60.7629 13.1239 51.7896C12.3557 47.6879 12.1463 45.2126 15.6473 42.2659C19.1482 39.3193 23.7222 42.2659 23.7222 42.2659C23.7222 42.2659 29.4591 45.5 27.255 51.7896C25.0509 58.0793 32.1727 53.5793 33.8159 51.7896C35.4591 50 34.5611 44.6334 33.8159 42.2659C33.0708 39.8985 25.9046 29.0161 15.6473 33.2435C10.5305 35.6399 8.56094 37.7679 6.56296 42.2659C4.51474 48.0034 4.44359 51.3948 6.56296 57.8046C9.30863 63.8688 15.856 70.6456 17.3762 71.17C11.9368 77.4476 10.2279 81.0565 10.6004 87.3782C11.0719 95.5851 13.008 99.1294 19.6848 103.418C25.4791 105.651 28.5813 105.718 33.8159 103.418C37.4505 101.467 39.5512 99.9215 43.4049 96.4007C43.4049 96.4007 57.5361 80.862 57.5361 87.3782V112.441C57.5361 112.441 62.5829 115.949 66.1157 112.441C67.8632 110.705 66.9873 94.5528 66.0982 78.1583C65.1899 61.4085 64.2678 44.4057 66.1157 42.2659C69.7723 38.0319 83.4591 39 85.2937 42.2659C87.1282 45.5319 85.2937 112.441 85.2937 112.441C85.2937 112.441 91.3499 115.448 94.378 112.441ZM52.9939 23.2185C52.9939 23.2185 54.2227 32.7542 59.5548 33.2435C59.9694 33.2815 60.4701 33.3303 61.0426 33.3861C67.8327 34.0478 84.7202 35.6934 87.8171 32.0574C91.1751 28.1148 86.2433 12.489 74.4591 9C72.9544 8.50027 67.9654 8.24264 59.5548 11C55.7832 12.046 54.2685 13.2755 52.9939 17C52.3827 20.6973 52.9939 23.2185 52.9939 23.2185Z" fill="black"/>
<path d="M57.5361 87.3782C57.5361 80.862 43.4049 96.4007 43.4049 96.4007C39.5512 99.9215 37.4505 101.467 33.8159 103.418C28.5813 105.718 25.4791 105.651 19.6848 103.418C13.008 99.1294 11.0719 95.5851 10.6004 87.3782C10.2279 81.0565 11.9368 77.4476 17.3762 71.17C15.856 70.6456 9.30863 63.8688 6.56296 57.8046C4.44359 51.3948 4.51474 48.0034 6.56296 42.2659C8.56094 37.7679 10.5305 35.6399 15.6473 33.2435C25.9046 29.0161 33.0708 39.8985 33.8159 42.2659C34.5611 44.6334 35.4591 50 33.8159 51.7896C32.1727 53.5793 25.0509 58.0793 27.255 51.7896C29.4591 45.5 23.7222 42.2659 23.7222 42.2659C23.7222 42.2659 19.1482 39.3193 15.6473 42.2659C12.1463 45.2126 12.3557 47.6879 13.1239 51.7896C15.7949 60.7629 20.0615 65.5131 23.5123 66.1274C30.0002 66.865 35.0019 65.6341 38.1579 64.8575C39.6721 64.4849 40.7614 64.2168 41.3862 64.3208C43.3133 64.6416 45.4237 67.8295 43.4049 70.837C41.3862 73.8445 31.7972 70.837 31.7972 70.837C24.0974 71.3635 21.8905 72.7148 19.6848 76.852C17.9752 80.6405 19.6848 85.8745 19.6848 85.8745C19.6848 85.8745 24.785 96.3795 33.8159 90.5C37.8373 87.8819 41.5742 85.6795 44.8112 83.7717C51.324 79.9332 55.8136 77.2872 56.5267 74.847C57.5943 71.194 60.5943 44.5319 56.5267 42.2659C54.2235 40.9829 51.6159 41.4786 49.0542 41.9656C47.0918 42.3386 45.1562 42.7066 43.4049 42.2659C39.3674 41.25 37.3487 32.241 43.4049 33.2435C49.4611 34.246 50.4705 33.2435 50.4705 33.2435L45.9283 23.2185C43.8804 18.3424 44.3745 15.4915 48.4518 10.1861C53.0893 5.40176 56.4031 3.8995 62.5829 1.6649C63.541 1.56786 64.3992 1.47295 65.1799 1.38662C71.0771 0.734476 72.5522 0.57135 79.2375 3.66989C86.8077 7.17864 90.3405 13.1936 90.3405 13.1936C94.8377 20.9973 95.5235 25.3888 94.378 33.2435C94.378 33.2435 103.462 35.7497 106.995 33.2435C110.528 30.7373 110.023 39.7597 106.995 42.2659C103.967 44.7722 94.378 42.2659 94.378 42.2659C94.378 42.2659 97.4061 109.433 94.378 112.441C91.3499 115.448 85.2937 112.441 85.2937 112.441C85.2937 112.441 87.1282 45.5319 85.2937 42.2659C83.4591 39 69.7723 38.0319 66.1157 42.2659C64.2678 44.4057 65.1899 61.4085 66.0982 78.1583C66.9873 94.5528 67.8632 110.705 66.1157 112.441C62.5829 115.949 57.5361 112.441 57.5361 112.441M57.5361 87.3782C57.5361 93.8944 57.5361 112.441 57.5361 112.441M57.5361 87.3782V112.441M59.5548 33.2435C54.2227 32.7542 52.9939 23.2185 52.9939 23.2185C52.9939 23.2185 52.3827 20.6973 52.9939 17C54.2685 13.2755 55.7832 12.046 59.5548 11C67.9654 8.24264 72.9544 8.50027 74.4591 9C86.2433 12.489 91.1751 28.1148 87.8171 32.0574C84.7202 35.6934 67.8327 34.0478 61.0426 33.3861C60.4701 33.3303 59.9694 33.2815 59.5548 33.2435Z" stroke="black"/>
</g>
<defs>
<filter id="filter0_d_1_5" x="0.5" y="0.500153" width="113.459" height="121.999" filterUnits="userSpaceOnUse" color-interpolation-filters="sRGB">
<feFlood flood-opacity="0" result="BackgroundImageFix"/>
<feColorMatrix in="SourceAlpha" type="matrix" values="0 0 0 0 0 0 0 0 0 0 0 0 0 0 0 0 0 0 127 0" result="hardAlpha"/>
<feOffset dy="4"/>
<feGaussianBlur stdDeviation="2"/>
<feComposite in2="hardAlpha" operator="out"/>
<feColorMatrix type="matrix" values="0 0 0 0 0 0 0 0 0 0 0 0 0 0 0 0 0 0 0.25 0"/>
<feBlend mode="normal" in2="BackgroundImageFix" result="effect1_dropShadow_1_5"/>
<feBlend mode="normal" in="SourceGraphic" in2="effect1_dropShadow_1_5" result="shape"/>
</filter>
</defs>
</svg>
